<svg height="512" viewBox="0 0 418.996 468.005" width="512" xmlns="http://www.w3.org/2000/svg"><g id="Calque_2" data-name="Calque 2"><g id="_34-_Driving_School" data-name="34- Driving School"><path d="m276.228 405.83-93.2 58.18a13.069 13.069 0 0 1 -9.72 1.69l-125.88-27.29a13.093 13.093 0 0 1 -3.16-24.49l92.48-46.98a13.094 13.094 0 0 0 7.04-13.5l-9.55-67.92 7.11 1.1-.17-1.1 124.51 13.31.64 3.66 15.87 89.95a13.092 13.092 0 0 1 -5.97 13.39z" fill="#e9e9fd"/><path d="m276.228 405.83-93.2 58.18a13.069 13.069 0 0 1 -9.72 1.69l-125.88-27.29a13.114 13.114 0 0 1 -5.52-22.96l38.7 7.39 88.82 19.24a13.107 13.107 0 0 0 9.7-1.66l79.14-46.59a13.088 13.088 0 0 0 6.03-13.22l-12.48-76.99 14.51-1.13 15.87 89.95a13.092 13.092 0 0 1 -5.97 13.39z" fill="#d7d7fd"/><path d="m416.988 34.96-6.21 306.87a16.664 16.664 0 0 1 -1.83 7.25 16.461 16.461 0 0 1 -5.62 6.34l-7.68 5.12a16.661 16.661 0 0 1 -11.41 2.67l-367.62-47.06a16.742 16.742 0 0 1 -14.618-16.61v-275.36a16.751 16.751 0 0 1 7.46-13.93l8.16-5.44a16.651 16.651 0 0 1 10-2.79l373.34 15.87a16.741 16.741 0 0 1 16.028 17.07z" fill="#8886fd"/><path d="m408.948 349.08a16.461 16.461 0 0 1 -5.62 6.34l-7.68 5.12a16.661 16.661 0 0 1 -11.41 2.67l-367.62-47.06a16.742 16.742 0 0 1 -14.618-16.61v-55.41l.01-.01 389.85 49.91z" fill="#7e7dfd"/><path d="m416.988 34.96-6.21 306.87a16.713 16.713 0 0 1 -7.45 13.59l-7.68 5.12a16.753 16.753 0 0 1 -5.17 2.3v-.01l6.36-314.43a16.752 16.752 0 0 0 -16.038-17.08l-376.26-16a16.625 16.625 0 0 1 4.92-5.07l8.16-5.44a16.651 16.651 0 0 1 10-2.79l373.34 15.87a16.741 16.741 0 0 1 16.028 17.07z" fill="#7878fd"/><path d="m48.244 137.623 39.523-4.158 9.599 28.958-38.983 12.414" fill="#c7c7fa"/><path d="m122.048 177.68a25.492 25.492 0 0 1 -5.85.19c-14.77-1.08-28.5-14.24-32.18-31.95-3.05-14.65 1.63-28.35 10.95-35.63a25.407 25.407 0 0 1 11.99-5.15c16.84-2.49 33.87 11.73 38.04 31.76s-6.11 38.29-22.95 40.78z" fill="#d7d7fd"/><path d="m116.2 177.87c-14.77-1.08-28.5-14.24-32.18-31.95-3.05-14.65 1.63-28.35 10.95-35.63 14.77 1.09 28.5 14.25 32.18 31.96 3.05 14.65-1.622 28.35-10.95 35.62z" fill="#e9e9fd"/><path d="m135.488 158.427 48.387-11.6-14.395-41.227-40.551 15.684s11.548 13.44 6.559 37.143z" fill="#c7c7fa"/><path d="m35.134 152.73c11.3 55.243 60.058 94 108.89 86.545s79.265-58.258 67.957-113.507-60.057-93.989-108.89-86.545-79.264 58.258-67.957 113.507zm64.741-74.661c29.986-4.481 60.191 20.362 67.465 55.489s-11.151 67.229-41.137 71.71-60.2-20.369-67.471-55.49 11.151-67.235 41.143-71.709z" fill="#e9e9fd"/><path d="m242.929 93.821 128.7 4.869h.27a7 7 0 0 0 .259-13.995l-128.7-4.869a7 7 0 1 0 -.529 13.99z" fill="#e9e9fd"/><path d="m372.154 128.905-128.7-4.87a7 7 0 1 0 -.529 13.99l128.7 4.87h.27a7 7 0 0 0 .259-14z" fill="#e9e9fd"/><path d="m307.807 170.675-64.349-2.436a7 7 0 1 0 -.529 13.99l64.348 2.436h.27a7 7 0 0 0 .26-13.995z" fill="#e9e9fd"/><g fill="#4200dd"><path d="m401.047 15.89-373.347-15.874a18.671 18.671 0 0 0 -11.19 3.13l-8.159 5.437a18.706 18.706 0 0 0 -8.351 15.599v275.357a18.784 18.784 0 0 0 16.365 18.593l122.646 15.7 2.8 19.886a11.088 11.088 0 0 1 -5.966 11.437l-92.48 46.98a15.1 15.1 0 0 0 -5.731 21.828 15.061 15.061 0 0 0 9.373 6.4l125.877 27.289a15 15 0 0 0 11.207-1.948l93.2-58.179a15.028 15.028 0 0 0 6.881-15.434l-7.162-40.591 106.972 13.7a18.478 18.478 0 0 0 2.381.152 18.742 18.742 0 0 0 4.481-.554c.044-.008.086-.023.129-.034a18.724 18.724 0 0 0 5.785-2.558l7.676-5.114a18.756 18.756 0 0 0 8.346-15.22l6.212-306.872a18.855 18.855 0 0 0 -17.945-19.11zm-120.818 376.9a11.049 11.049 0 0 1 -5.059 11.346l-93.2 58.179a11.034 11.034 0 0 1 -8.239 1.432l-125.881-27.292a11.105 11.105 0 0 1 -2.676-20.755l92.478-46.979a15.087 15.087 0 0 0 8.117-15.562l-2.645-18.8 114.019 14.6 5.181 31.974a11.012 11.012 0 0 1 -5.071 11.174l-79.176 46.612a11.068 11.068 0 0 1 -8.225 1.407l-88.82-19.24a2 2 0 1 0 -.847 3.91l88.815 19.238a15.215 15.215 0 0 0 3.251.353 15 15 0 0 0 7.892-2.244l79.174-46.611a15.01 15.01 0 0 0 6.955-15.242l-4.99-30.8 11.573 1.482zm108.277-31.6a14.79 14.79 0 0 1 -4.016.042l-243.515-31.178c-.029 0-.058-.01-.087-.012l-124.015-15.877a14.778 14.778 0 0 1 -12.873-14.626v-53.147l385.83 49.4zm20.274-19.4a14.748 14.748 0 0 1 -6.565 11.972l-7.676 5.114a14.726 14.726 0 0 1 -2.007 1.109l6.305-311.548a18.87 18.87 0 0 0 -17.952-19.117l-312.885-13.304a2 2 0 0 0 -.17 4l312.884 13.3a14.845 14.845 0 0 1 14.122 15.042l-4.926 243.41-385.91-49.407v-218.179a14.716 14.716 0 0 1 6.569-12.271l8.16-5.437a14.639 14.639 0 0 1 8.163-2.474q.318 0 .638.014l373.347 15.873a14.829 14.829 0 0 1 14.115 15.031z"/><path d="m55.188 136.889c0 .045.02.088.027.133a77.671 77.671 0 0 0 1.558 13.161 79.128 79.128 0 0 0 8.586 22.892 2.047 2.047 0 0 0 .118.211c11.868 20.836 32.422 34.5 53.736 34.5a48.768 48.768 0 0 0 40.556-21.613c6.977-10 10.776-22.376 11.114-35.467a2 2 0 0 0 0-.507 76.98 76.98 0 0 0 -1.589-17.046 79.024 79.024 0 0 0 -9.172-23.888c-.006-.016-.007-.031-.013-.046a1.956 1.956 0 0 0 -.322-.537c-13.37-22.394-36.877-36.071-60.211-32.591a49.334 49.334 0 0 0 -33.27 21.067c-7.656 10.969-11.483 24.8-11.113 39.3a2.027 2.027 0 0 0 -.005.431zm5.5 12.484a74.136 74.136 0 0 1 -1.415-10.9l21.833-2.289a45.318 45.318 0 0 0 .951 10.144 46.33 46.33 0 0 0 7.027 16.632l-21.04 6.71a75.478 75.478 0 0 1 -7.354-20.297zm95.8 34.511a45.386 45.386 0 0 1 -30.581 19.406c-21.523 3.222-43.232-9.376-55.834-30.07l21.563-6.877c6.984 8.406 16.651 13.617 26.587 13.617a28.145 28.145 0 0 0 4.117-.3c11.056-1.636 20.048-9.916 23.734-21.713l20.7-4.967a60.173 60.173 0 0 1 -10.285 30.904zm8.892-49.92a73.174 73.174 0 0 1 1.518 14.872l-31.878 7.649a2 2 0 1 0 .934 3.889l5.5-1.32c-3.6 9.188-10.767 15.325-19.7 16.647-15.785 2.33-31.838-11.208-35.779-30.188a40.973 40.973 0 0 1 -.778-11.36v-.024a33.21 33.21 0 0 1 5.656-16.585 24.312 24.312 0 0 1 16.395-10.426c9.1-1.344 18.569 2.538 25.781 10.431l-4.825 1.866a2 2 0 1 0 1.443 3.73l27.7-10.712a75.307 75.307 0 0 1 8.034 21.531zm-95.794-34.517a45.367 45.367 0 0 1 30.585-19.4c21.1-3.16 42.393 8.9 55.094 28.9l-18.265 7.067c-8.217-9.659-19.454-14.463-30.336-12.853a28.268 28.268 0 0 0 -19.09 12.094 36.817 36.817 0 0 0 -6.192 16.875l-22.21 2.329c.015-12.952 3.579-25.219 10.414-35.012z"/><path d="m111.607 114.213a2 2 0 1 0 -2.253 3.3 38.838 38.838 0 0 1 15.93 24 34.874 34.874 0 0 1 -3.127 23.572 2 2 0 0 0 3.526 1.89 38.882 38.882 0 0 0 3.517-26.275 42.86 42.86 0 0 0 -17.593-26.487z"/><path d="m242.853 95.82 128.706 4.869c.111 0 .223.006.335.006a9 9 0 0 0 .334-17.994l-128.7-4.869a9 9 0 0 0 -.679 17.988zm.53-13.99 128.695 4.87a5 5 0 0 1 -.183 10l-128.895-4.878a5 5 0 1 1 .378-9.992z"/><path d="m242.854 140.024 128.706 4.87c.111 0 .223.006.335.006a9 9 0 0 0 .335-17.994l-128.7-4.87a9 9 0 0 0 -.677 17.988zm.342-13.994h.187l128.695 4.87a5 5 0 0 1 -.183 10l-128.89-4.874a5 5 0 0 1 .191-10z"/><path d="m242.854 184.228 64.358 2.436c.111 0 .224.006.335.006a9 9 0 0 0 .336-17.994l-64.351-2.436a9 9 0 0 0 -.677 17.988zm.342-13.994h.187l64.348 2.436a5 5 0 0 1 -.183 10l-64.542-2.44a5 5 0 0 1 .191-10z"/><path d="m48.271 71.718c-15.6 22.38-21.1 52.053-15.1 81.413 10.543 51.537 53.358 89.059 98.8 89.055a81.988 81.988 0 0 0 12.351-.934c22-3.353 41.358-15.6 54.519-34.473 15.6-22.38 21.1-52.054 15.1-81.412-11.492-56.182-61.354-95.718-111.151-88.121-21.996 3.354-41.357 15.595-54.519 34.472zm55.122-30.518a77.886 77.886 0 0 1 11.768-.891c43.581 0 84.7 36.188 94.861 85.859 5.79 28.29.52 56.838-14.459 78.322-12.528 17.97-30.939 29.62-51.84 32.806-47.709 7.293-95.555-30.835-106.63-84.967-5.789-28.291-.519-56.839 14.46-78.323 12.528-17.97 30.938-29.619 51.84-32.806z"/></g></g></g></svg>